<svg xmlns="http://www.w3.org/2000/svg" width="48" height="48" viewBox="0 0 48 48">
    <path d="M0 0 C15.84 0 31.68 0 48 0 C48 15.84 48 31.68 48 48 C32.16 48 16.32 48 0 48 C0 32.16 0 16.32 0 0 Z " fill="#421414" transform="translate(0,0)"></path>
    <path d="M0 0 C1.18776537 2.37553074 1.0882153 3.71321373 1.02172852 6.35791016 C0.99158409 7.70908432 0.99158409 7.70908432 0.96083069 9.08755493 C0.93379562 10.06155243 0.90676056 11.03554993 0.87890625 12.0390625 C0.85529526 13.03505463 0.83168427 14.03104675 0.80735779 15.05722046 C0.73062353 18.24662181 0.64664116 21.43578628 0.5625 24.625 C0.50928909 26.78384247 0.45654864 28.9426966 0.40429688 31.1015625 C0.27588172 36.40123568 0.13767616 41.70052684 0 47 C-9.24 47 -18.48 47 -28 47 C-28 46.67 -28 46.34 -28 46 C-24.7 46 -21.4 46 -18 46 C-18 41.38 -18 36.76 -18 32 C-21.3 32 -24.6 32 -28 32 C-28 31.67 -28 31.34 -28 31 C-24.7 31 -21.4 31 -18 31 C-18.01160156 30.09121094 -18.02320313 29.18242187 -18.03515625 28.24609375 C-18.1007985 19.10306601 -17.69474025 10.11846579 -17 1 C-8.585 0.505 -8.585 0.505 0 0 Z " fill="#2E1717" transform="translate(47,0)"></path>
    <path d="M0 0 C5.28 0.33 10.56 0.66 16 1 C16 1.33 16 1.66 16 2 C11.71 2 7.42 2 3 2 C3 6.29 3 10.58 3 15 C7.29 15 11.58 15 16 15 C14 17 14 17 11.3984375 17.1953125 C8.59895833 17.13020833 5.79947917 17.06510417 3 17 C3 21.62 3 26.24 3 31 C6.96 31 10.92 31 15 31 C15.33 31.66 15.66 32.32 16 33 C11.71 33 7.42 33 3 33 C3 37.29 3 41.58 3 46 C6.96 46 10.92 46 15 46 C15 46.33 15 46.66 15 47 C10.05 47.33 5.1 47.66 0 48 C0 32.16 0 16.32 0 0 Z " fill="#341616" transform="translate(0,0)"></path>
    <path d="M0 0 C4.29 0 8.58 0 13 0 C13 3.96 13 7.92 13 12 C8.71 12 4.42 12 0 12 C0 8.04 0 4.08 0 0 Z " fill="#920808" transform="translate(32,33)"></path>
    <path d="M0 0 C4.29 0 8.58 0 13 0 C13 3.96 13 7.92 13 12 C8.71 12 4.42 12 0 12 C0 8.04 0 4.08 0 0 Z " fill="#920808" transform="translate(3,33)"></path>
    <path d="M0 0 C4.29 0 8.58 0 13 0 C13 3.96 13 7.92 13 12 C8.71 12 4.42 12 0 12 C0 8.04 0 4.08 0 0 Z " fill="#920808" transform="translate(32,3)"></path>
    <path d="M0 0 C4.29 0 8.58 0 13 0 C13 3.96 13 7.92 13 12 C8.71 12 4.42 12 0 12 C0 8.04 0 4.08 0 0 Z " fill="#920808" transform="translate(3,3)"></path>
    <path d="M0 0 C3.96 0 7.92 0 12 0 C12 3.96 12 7.92 12 12 C8.04 12 4.08 12 0 12 C0 8.04 0 4.08 0 0 Z " fill="#C80000" transform="translate(33,18)"></path>
    <path d="M0 0 C3.96 0 7.92 0 12 0 C12 3.96 12 7.92 12 12 C8.04 12 4.08 12 0 12 C0 8.04 0 4.08 0 0 Z " fill="#C80000" transform="translate(3,18)"></path>
    <path d="M0 0 C3.3 0 6.6 0 10 0 C10 3.96 10 7.92 10 12 C6.7 12 3.4 12 0 12 C0 8.04 0 4.08 0 0 Z " fill="#C60000" transform="translate(19,33)"></path>
    <path d="M0 0 C3.3 0 6.6 0 10 0 C10 3.96 10 7.92 10 12 C6.7 12 3.4 12 0 12 C0 8.04 0 4.08 0 0 Z " fill="#CC0000" transform="translate(19,18)"></path>
    <path d="M0 0 C3.3 0 6.6 0 10 0 C10 3.96 10 7.92 10 12 C6.7 12 3.4 12 0 12 C0 8.04 0 4.08 0 0 Z " fill="#C60000" transform="translate(19,3)"></path>
    <path d="M0 0 C0.33 0 0.66 0 1 0 C1.33 3.96 1.66 7.92 2 12 C4.9390625 12.185625 4.9390625 12.185625 7.9375 12.375 C11.27734375 12.5859375 11.27734375 12.5859375 14 13 C14.33 13.66 14.66 14.32 15 15 C10.71 15 6.42 15 2 15 C2 19.29 2 23.58 2 28 C5.96 28 9.92 28 14 28 C14 28.33 14 28.66 14 29 C9.05 29.33 4.1 29.66 -1 30 C-0.67 20.1 -0.34 10.2 0 0 Z " fill="#1F1919" transform="translate(1,18)"></path>
    <path d="M0 0 C2.97 0 5.94 0 9 0 C9 2.64 9 5.28 9 8 C6.03 8 3.06 8 0 8 C0 5.36 0 2.72 0 0 Z " fill="#1E1919" transform="translate(34,35)"></path>
    <path d="M0 0 C2.97 0 5.94 0 9 0 C9 2.64 9 5.28 9 8 C6.03 8 3.06 8 0 8 C0 5.36 0 2.72 0 0 Z " fill="#1E1919" transform="translate(5,35)"></path>
    <path d="M0 0 C2.97 0 5.94 0 9 0 C9 2.64 9 5.28 9 8 C6.03 8 3.06 8 0 8 C0 5.36 0 2.72 0 0 Z " fill="#1E1919" transform="translate(34,5)"></path>
    <path d="M0 0 C2.97 0 5.94 0 9 0 C9 2.64 9 5.28 9 8 C6.03 8 3.06 8 0 8 C0 5.36 0 2.72 0 0 Z " fill="#1E1919" transform="translate(5,5)"></path>
    <path d="M0 0 C0.33 0 0.66 0 1 0 C1 9.57 1 19.14 1 29 C-3.62 29 -8.24 29 -13 29 C-13 28.67 -13 28.34 -13 28 C-9.04 28 -5.08 28 -1 28 C-1 23.38 -1 18.76 -1 14 C-4.96 14 -8.92 14 -13 14 C-13 13.67 -13 13.34 -13 13 C-7.06 12.505 -7.06 12.505 -1 12 C-0.67 8.04 -0.34 4.08 0 0 Z " fill="#1D1919" transform="translate(46,18)"></path>
    <path d="M0 0 C0.33 1.32 0.66 2.64 1 4 C2.65 4 4.3 4 6 4 C6.33 3.01 6.66 2.02 7 1 C7.33 2.65 7.66 4.3 8 6 C5.36 6 2.72 6 0 6 C0 4.02 0 2.04 0 0 Z " fill="#1B1919" transform="translate(35,37)"></path>
    <path d="M0 0 C2.64 0 5.28 0 8 0 C7.67 1.65 7.34 3.3 7 5 C6.67 4.01 6.34 3.02 6 2 C4.35 2 2.7 2 1 2 C0.67 3.32 0.34 4.64 0 6 C0 4.02 0 2.04 0 0 Z " fill="#1B1919" transform="translate(35,5)"></path>
    <path d="M0 0 C0.33 0.99 0.66 1.98 1 3 C2.65 3 4.3 3 6 3 C6.33 2.01 6.66 1.02 7 0 C7 1.65 7 3.3 7 5 C4.36 5 1.72 5 -1 5 C-0.67 3.35 -0.34 1.7 0 0 Z " fill="#1C1919" transform="translate(6,38)"></path>
    <path d="M0 0 C2.64 0 5.28 0 8 0 C8 1.65 8 3.3 8 5 C7.67 4.01 7.34 3.02 7 2 C5.35 2 3.7 2 2 2 C1.67 2.66 1.34 3.32 1 4 C0.67 2.68 0.34 1.36 0 0 Z " fill="#1B1919" transform="translate(5,5)"></path>
    <path d="M0 0 C1.65 0 3.3 0 5 0 C5 1.32 5 2.64 5 4 C3.35 4 1.7 4 0 4 C0 2.68 0 1.36 0 0 Z " fill="#950808" transform="translate(36,37)"></path>
    <path d="M0 0 C1.65 0 3.3 0 5 0 C5 1.32 5 2.64 5 4 C3.35 4 1.7 4 0 4 C0 2.68 0 1.36 0 0 Z " fill="#950808" transform="translate(7,37)"></path>
    <path d="M0 0 C1.65 0 3.3 0 5 0 C5 1.32 5 2.64 5 4 C3.35 4 1.7 4 0 4 C0 2.68 0 1.36 0 0 Z " fill="#950808" transform="translate(7,7)"></path>
    <path d="M0 0 C1.65 0 3.3 0 5 0 C5 1.32 5 2.64 5 4 C3.35 4 1.7 4 0 4 C0 2.68 0 1.36 0 0 Z " fill="#950808" transform="translate(36,7)"></path>
</svg>
