<?xml version="1.0" encoding="UTF-8"?>
<svg version="1.1" xmlns="http://www.w3.org/2000/svg" width="24" height="24">
<path d="M0 0 C0.5878125 0.32484375 1.175625 0.6496875 1.78125 0.984375 C1.80812279 2.79679552 1.82758715 4.60932733 1.84375 6.421875 C1.85535156 7.43121094 1.86695312 8.44054687 1.87890625 9.48046875 C1.78125 11.984375 1.78125 11.984375 0.78125 12.984375 C-1.21833364 13.02518283 -3.21920254 13.02691856 -5.21875 12.984375 C-5.30125 14.0775 -5.38375 15.170625 -5.46875 16.296875 C-6.21875 19.984375 -6.21875 19.984375 -7.78125 21.921875 C-11.24383245 23.43120581 -14.49532594 23.54434307 -18.21875 22.984375 C-19.53875 22.324375 -20.85875 21.664375 -22.21875 20.984375 C-22.21875 17.024375 -22.21875 13.064375 -22.21875 8.984375 C-20.89875 8.984375 -19.57875 8.984375 -18.21875 8.984375 C-18.21875 8.324375 -18.21875 7.664375 -18.21875 6.984375 C-16.89875 6.654375 -15.57875 6.324375 -14.21875 5.984375 C-14.13625 5.200625 -14.05375 4.416875 -13.96875 3.609375 C-13.21875 0.984375 -13.21875 0.984375 -11.59375 -0.328125 C-7.61332844 -1.48035229 -3.81710796 -1.74726773 0 0 Z " fill="#000000" transform="translate(22.21875,1.015625)"/>
</svg>
