<svg xmlns="http://www.w3.org/2000/svg" width="48" height="48" viewBox="0 0 48 48">
    <path d="M0 0 C15.84 0 31.68 0 48 0 C48 15.84 48 31.68 48 48 C32.16 48 16.32 48 0 48 C0 32.16 0 16.32 0 0 Z " fill="#4B4B4B" transform="translate(0,0)"></path>
    <path d="M0 0 C1.18776537 2.37553074 1.0882153 3.71321373 1.02172852 6.35791016 C0.99158409 7.70908432 0.99158409 7.70908432 0.96083069 9.08755493 C0.93379562 10.06155243 0.90676056 11.03554993 0.87890625 12.0390625 C0.85529526 13.03505463 0.83168427 14.03104675 0.80735779 15.05722046 C0.73062353 18.24662181 0.64664116 21.43578628 0.5625 24.625 C0.50928909 26.78384247 0.45654864 28.9426966 0.40429688 31.1015625 C0.27499515 36.40119241 0.13919155 41.70062099 0 47 C-5.94 47 -11.88 47 -18 47 C-18.02323478 42.69898484 -18.04306084 38.39819642 -18.05493164 34.09716797 C-18.05989187 32.64078016 -18.06666215 31.18439715 -18.07543945 29.72802734 C-18.1319968 20.08666311 -17.80239498 10.61610363 -17 1 C-8.585 0.505 -8.585 0.505 0 0 Z " fill="#313131" transform="translate(47,0)"></path>
    <path d="M0 0 C5.28 0.33 10.56 0.66 16 1 C16 1.33 16 1.66 16 2 C11.71 2 7.42 2 3 2 C3 6.29 3 10.58 3 15 C7.29 15 11.58 15 16 15 C14 17 14 17 11.3984375 17.1953125 C8.59895833 17.13020833 5.79947917 17.06510417 3 17 C3 21.62 3 26.24 3 31 C4.77375 30.95875 6.5475 30.9175 8.375 30.875 C11.3984375 30.8046875 11.3984375 30.8046875 14 31 C14.66 31.66 15.32 32.32 16 33 C11.71 33 7.42 33 3 33 C3 37.29 3 41.58 3 46 C6.63 46 10.26 46 14 46 C14 46.33 14 46.66 14 47 C9.38 47.33 4.76 47.66 0 48 C0 32.16 0 16.32 0 0 Z " fill="#383838" transform="translate(0,0)"></path>
    <path d="M0 0 C4.29 0 8.58 0 13 0 C13 3.96 13 7.92 13 12 C8.71 12 4.42 12 0 12 C0 8.04 0 4.08 0 0 Z " fill="#BABABA" transform="translate(32,33)"></path>
    <path d="M0 0 C4.29 0 8.58 0 13 0 C13 3.96 13 7.92 13 12 C8.71 12 4.42 12 0 12 C0 8.04 0 4.08 0 0 Z " fill="#BABABA" transform="translate(3,33)"></path>
    <path d="M0 0 C4.29 0 8.58 0 13 0 C13 3.96 13 7.92 13 12 C8.71 12 4.42 12 0 12 C0 8.04 0 4.08 0 0 Z " fill="#B4B4B4" transform="translate(32,3)"></path>
    <path d="M0 0 C4.29 0 8.58 0 13 0 C13 3.96 13 7.92 13 12 C8.71 12 4.42 12 0 12 C0 8.04 0 4.08 0 0 Z " fill="#B4B4B4" transform="translate(3,3)"></path>
    <path d="M0 0 C3.96 0 7.92 0 12 0 C12 3.96 12 7.92 12 12 C8.04 12 4.08 12 0 12 C0 8.04 0 4.08 0 0 Z " fill="#FAFAFA" transform="translate(33,18)"></path>
    <path d="M0 0 C3.96 0 7.92 0 12 0 C12 3.96 12 7.92 12 12 C8.04 12 4.08 12 0 12 C0 8.04 0 4.08 0 0 Z " fill="#FAFAFA" transform="translate(3,18)"></path>
    <path d="M0 0 C3.3 0 6.6 0 10 0 C10 3.96 10 7.92 10 12 C6.7 12 3.4 12 0 12 C0 8.04 0 4.08 0 0 Z " fill="#F8F8F8" transform="translate(19,33)"></path>
    <path d="M0 0 C3.3 0 6.6 0 10 0 C10 3.96 10 7.92 10 12 C6.7 12 3.4 12 0 12 C0 8.04 0 4.08 0 0 Z " fill="#FFFFFF" transform="translate(19,18)"></path>
    <path d="M0 0 C3.3 0 6.6 0 10 0 C10 3.96 10 7.92 10 12 C6.7 12 3.4 12 0 12 C0 8.04 0 4.08 0 0 Z " fill="#F8F8F8" transform="translate(19,3)"></path>
    <path d="M0 0 C2.97 0 5.94 0 9 0 C9 2.64 9 5.28 9 8 C6.03 8 3.06 8 0 8 C0 5.36 0 2.72 0 0 Z " fill="#1E1E1E" transform="translate(34,35)"></path>
    <path d="M0 0 C2.97 0 5.94 0 9 0 C9 2.64 9 5.28 9 8 C6.03 8 3.06 8 0 8 C0 5.36 0 2.72 0 0 Z " fill="#1E1E1E" transform="translate(5,35)"></path>
    <path d="M0 0 C2.97 0 5.94 0 9 0 C9 2.64 9 5.28 9 8 C6.03 8 3.06 8 0 8 C0 5.36 0 2.72 0 0 Z " fill="#1E1E1E" transform="translate(34,5)"></path>
    <path d="M0 0 C2.97 0 5.94 0 9 0 C9 2.64 9 5.28 9 8 C6.03 8 3.06 8 0 8 C0 5.36 0 2.72 0 0 Z " fill="#1E1E1E" transform="translate(5,5)"></path>
    <path d="M0 0 C9.9609375 -0.1953125 9.9609375 -0.1953125 13 0 C13.66 0.66 14.32 1.32 15 2 C10.71 2 6.42 2 2 2 C2 6.29 2 10.58 2 15 C5.63 15 9.26 15 13 15 C13 15.33 13 15.66 13 16 C8.38 16.33 3.76 16.66 -1 17 C-0.67 11.39 -0.34 5.78 0 0 Z " fill="#222222" transform="translate(1,31)"></path>
    <path d="M0 0 C0.33 0 0.66 0 1 0 C1 3.96 1 7.92 1 12 C-2.3 11.67 -5.6 11.34 -9 11 C-9 10.67 -9 10.34 -9 10 C-6.36 10 -3.72 10 -1 10 C-1.020625 8.72125 -1.04125 7.4425 -1.0625 6.125 C-1.125 2.25 -1.125 2.25 0 0 Z " fill="#AAAAAA" transform="translate(44,33)"></path>
    <path d="M0 0 C2 2 2 2 2.1953125 3.9453125 C2.13020833 5.96354167 2.06510417 7.98177083 2 10 C4.64 10 7.28 10 10 10 C10 10.33 10 10.66 10 11 C6.7 11.33 3.4 11.66 0 12 C0 8.04 0 4.08 0 0 Z " fill="#AAAAAA" transform="translate(3,33)"></path>
    <path d="M0 0 C1.65 0 3.3 0 5 0 C5 1.32 5 2.64 5 4 C3.35 4 1.7 4 0 4 C0 2.68 0 1.36 0 0 Z " fill="#B8B8B8" transform="translate(36,37)"></path>
    <path d="M0 0 C1.65 0 3.3 0 5 0 C5 1.32 5 2.64 5 4 C3.35 4 1.7 4 0 4 C0 2.68 0 1.36 0 0 Z " fill="#B8B8B8" transform="translate(7,37)"></path>
    <path d="M0 0 C1.65 0 3.3 0 5 0 C5 1.32 5 2.64 5 4 C3.35 4 1.7 4 0 4 C0 2.68 0 1.36 0 0 Z " fill="#B8B8B8" transform="translate(7,7)"></path>
    <path d="M0 0 C1.65 0 3.3 0 5 0 C5 1.32 5 2.64 5 4 C3.35 4 1.7 4 0 4 C0 2.68 0 1.36 0 0 Z " fill="#B8B8B8" transform="translate(36,7)"></path>
</svg>
